<?xml version="1.0" standalone="no"?>
<!DOCTYPE svg PUBLIC "-//W3C//DTD SVG 20010904//EN"
 "http://www.w3.org/TR/2001/REC-SVG-20010904/DTD/svg10.dtd">
<svg version="1.0" xmlns="http://www.w3.org/2000/svg"
 width="570.000000pt" height="548.000000pt" viewBox="0 0 570.000000 548.000000"
 preserveAspectRatio="xMidYMid meet">

<g transform="translate(0.000000,548.000000) scale(0.100000,-0.100000)"
fill="#000000" stroke="none">
<path d="M2625 5209 c-159 -23 -438 -130 -591 -226 -125 -78 -202 -132 -255
-179 -87 -77 -400 -407 -412 -434 -6 -14 -25 -43 -42 -65 -18 -22 -40 -56 -50
-75 -10 -19 -26 -46 -36 -59 -11 -13 -19 -31 -19 -40 0 -22 -55 -154 -89 -215
-39 -69 -63 -144 -103 -316 -33 -144 -33 -146 -33 -405 0 -324 9 -370 124
-644 37 -87 40 -92 185 -319 94 -147 126 -188 208 -267 98 -94 164 -147 248
-198 25 -16 63 -41 85 -57 118 -86 435 -157 808 -180 83 -5 202 -14 263 -20
101 -9 120 -8 235 15 145 30 270 78 461 178 112 59 155 89 245 169 60 53 139
119 176 147 106 79 206 204 280 349 53 104 103 308 93 376 -14 87 -73 128
-246 171 -52 13 -112 31 -133 40 -21 8 -76 25 -124 36 -47 11 -95 27 -107 34
-12 8 -86 30 -166 50 -80 20 -192 52 -250 70 -58 19 -134 38 -170 42 -56 7
-65 11 -68 30 -2 13 4 26 15 32 11 5 95 15 189 21 93 6 192 15 219 21 28 6
113 14 190 19 77 5 192 16 254 25 63 8 187 22 275 30 89 9 186 20 216 24 30 5
98 12 150 16 193 12 289 47 311 113 6 19 9 64 7 100 -4 69 0 59 -166 430 -32
72 -72 140 -109 187 -32 41 -84 109 -115 152 -31 43 -106 125 -165 183 -59 58
-132 133 -161 168 -30 34 -71 71 -91 82 -21 10 -57 35 -82 56 -114 95 -436
216 -770 290 -137 30 -195 37 -354 44 -220 11 -249 11 -330 -1z m455 -264
c173 -15 216 -23 245 -41 11 -7 47 -18 80 -24 92 -19 211 -58 310 -102 255
-114 254 -113 356 -240 40 -50 107 -117 155 -155 81 -65 204 -197 291 -313 57
-76 169 -296 177 -347 8 -54 -10 -73 -67 -73 -50 0 -316 -26 -402 -40 -33 -5
-161 -19 -285 -30 -124 -11 -281 -27 -350 -35 -69 -8 -188 -21 -265 -30 -77
-9 -169 -20 -205 -25 -78 -11 -343 -46 -420 -55 -66 -8 -94 -24 -116 -67 -22
-43 -14 -145 14 -185 25 -35 147 -98 227 -119 64 -15 416 -127 475 -149 19 -8
96 -33 170 -56 74 -23 164 -52 200 -65 36 -12 85 -28 110 -34 25 -7 90 -27
145 -45 55 -18 126 -38 158 -44 66 -14 69 -23 38 -112 -32 -95 -58 -134 -164
-256 -147 -168 -185 -201 -373 -324 -86 -56 -312 -155 -413 -181 -74 -19 -115
-22 -291 -22 -201 -1 -219 1 -500 45 -36 6 -101 21 -145 34 -44 13 -118 35
-165 49 -70 21 -98 36 -155 82 -39 31 -82 61 -96 68 -30 12 -231 206 -296 283
-80 96 -178 294 -219 447 -13 49 -31 108 -39 132 -18 53 -23 406 -7 469 6 22
13 69 17 105 23 235 81 389 230 610 17 25 36 57 42 71 14 32 117 152 249 289
55 58 119 126 142 151 23 25 70 61 104 79 35 18 87 49 117 67 29 19 75 43 103
54 27 10 75 32 106 49 171 88 392 115 712 85z"/>
<path d="M2740 4754 c-242 -47 -328 -77 -476 -165 -45 -27 -86 -49 -92 -49
-31 0 -255 -209 -318 -297 -24 -34 -44 -65 -44 -70 1 -4 21 -30 45 -57 36 -38
50 -47 68 -42 12 3 60 40 107 82 47 42 110 92 140 112 30 19 87 56 125 82 203
137 418 198 645 184 170 -10 292 -39 482 -115 72 -29 121 -25 152 12 31 37 38
62 34 120 -3 39 -7 46 -43 66 -68 38 -259 95 -405 119 -86 15 -374 27 -420 18z"/>
<path d="M2657 4386 c-51 -19 -81 -48 -120 -116 -31 -54 -32 -58 -31 -173 0
-64 3 -119 5 -121 2 -2 27 -6 56 -8 51 -5 51 -5 42 19 -13 35 -11 99 5 136 23
55 86 114 135 127 38 10 50 9 79 -5 19 -9 35 -15 36 -13 1 2 11 25 24 51 14
31 35 55 57 69 40 23 41 34 2 19 -19 -7 -40 -6 -74 4 -74 22 -172 27 -216 11z"/>
<path d="M3323 4307 c-29 -28 -29 -47 -2 -81 28 -35 57 -31 83 13 l20 34 -34
29 c-19 15 -37 28 -40 27 -3 0 -15 -10 -27 -22z"/>
<path d="M3860 4273 c-70 -11 -166 -70 -209 -130 -63 -87 -69 -201 -18 -308
31 -64 39 -73 90 -98 50 -24 67 -27 159 -27 78 0 109 4 126 16 43 30 19 72
-50 88 -16 4 -28 13 -28 22 0 13 -9 14 -52 9 -50 -6 -55 -5 -90 27 -59 55 -63
126 -12 188 83 98 234 97 314 -3 30 -38 59 -120 60 -170 0 -40 -44 -181 -64
-206 -9 -12 -5 -13 29 -7 83 15 104 26 131 71 74 127 38 334 -77 448 -21 20
-43 37 -50 37 -6 0 -26 9 -43 19 -31 19 -155 33 -216 24z"/>
<path d="M1751 4098 c-35 -43 -84 -114 -94 -136 -6 -15 -21 -41 -34 -57 -55
-76 -153 -366 -153 -456 0 -51 33 -88 76 -84 46 5 100 74 124 159 54 188 73
248 106 336 20 52 44 112 55 132 24 46 24 80 1 101 -22 20 -67 22 -81 5z"/>
<path d="M2145 4006 c-118 -27 -217 -104 -263 -204 -45 -100 -28 -240 43 -342
61 -88 203 -141 320 -119 201 37 307 212 259 425 -16 72 -22 84 -73 138 -87
91 -184 126 -286 102z m144 -159 c57 -38 85 -96 86 -177 0 -59 -3 -70 -35
-115 -47 -65 -90 -88 -154 -81 -125 14 -191 87 -183 202 6 76 42 151 88 182
48 33 139 28 198 -11z"/>
<path d="M3170 3884 c-19 -7 -45 -13 -56 -13 -12 -1 -27 -8 -34 -15 -6 -8 -28
-20 -47 -27 -42 -13 -105 -48 -115 -64 -4 -5 -8 -39 -8 -74 0 -56 2 -62 18
-56 9 4 35 14 57 21 22 8 69 27 105 43 36 16 80 35 98 41 32 12 32 13 32 81 0
37 -3 70 -7 72 -5 2 -24 -2 -43 -9z"/>
<path d="M1474 3088 c-50 -23 -37 -171 27 -310 80 -176 172 -312 293 -433 63
-62 130 -120 155 -133 l45 -21 14 42 c11 30 13 67 9 131 -7 101 -14 115 -153
281 -82 99 -135 199 -178 337 -15 49 -33 91 -39 95 -7 5 -34 8 -62 8 -27 0
-59 3 -70 7 -11 3 -30 2 -41 -4z"/>
<path d="M1907 3059 c-50 -29 -60 -131 -21 -205 31 -60 48 -79 98 -115 98 -73
238 6 190 106 -19 42 -41 50 -92 34 -30 -8 -44 -8 -61 0 -20 11 -21 19 -19 87
3 65 0 78 -16 90 -23 17 -54 18 -79 3z"/>
<path d="M2582 2958 c-33 -33 13 -109 74 -124 16 -4 46 -15 67 -26 20 -10 72
-26 115 -34 47 -10 121 -37 191 -71 63 -30 121 -51 129 -48 20 7 12 104 -12
140 -33 51 -164 97 -463 165 -56 13 -87 12 -101 -2z"/>
<path d="M3640 2520 c-58 -73 -184 -151 -385 -237 -178 -77 -184 -78 -455 -77
-213 1 -256 4 -330 22 -175 43 -195 48 -216 44 -49 -7 -60 -111 -18 -162 50
-58 148 -98 299 -120 248 -36 595 -22 630 27 10 13 16 15 26 6 11 -8 40 0 121
32 172 69 249 119 402 262 79 74 153 171 139 183 -7 6 -63 25 -159 54 -17 5
-29 -2 -54 -34z"/>
<path d="M2845 2533 c-33 -8 -53 -37 -56 -84 -3 -37 -1 -45 19 -55 12 -6 29
-19 36 -29 10 -15 22 -17 61 -12 62 6 75 24 75 99 0 57 -1 58 -27 58 -16 0
-41 7 -57 15 -15 8 -29 14 -30 14 0 -1 -10 -4 -21 -6z"/>
<path d="M2475 2483 c-42 -22 -46 -32 -39 -83 10 -79 80 -128 126 -89 11 11
26 19 32 19 6 0 20 16 30 35 l19 35 -25 20 c-14 10 -28 33 -31 50 -6 27 -10
30 -44 30 -21 -1 -51 -8 -68 -17z"/>
<path d="M216 3028 c-21 -30 -10 -41 23 -23 35 17 68 10 104 -23 72 -67 -3
-212 -110 -212 -16 0 -27 -8 -34 -26 -5 -15 -7 -30 -3 -33 6 -6 350 -9 397 -2
21 3 27 9 27 28 0 23 -3 25 -36 19 -54 -11 -61 2 -59 98 2 101 19 136 65 136
32 0 33 2 24 38 -8 27 -36 28 -78 3 -34 -20 -54 -67 -55 -132 -2 -107 -14
-122 -91 -112 l-40 6 19 31 c17 27 28 117 22 176 -2 26 -55 50 -109 50 -41 0
-54 -4 -66 -22z"/>
<path d="M4813 3010 c-35 -14 -56 -55 -49 -92 3 -18 7 -41 9 -51 2 -21 6 -22
35 -13 21 7 31 26 13 26 -5 0 -11 9 -14 21 -7 28 25 59 63 59 27 0 30 -3 30
-30 0 -30 -49 -110 -96 -159 -29 -29 -56 -80 -48 -92 3 -5 52 -9 110 -9 l104
0 0 25 c0 24 -3 25 -55 24 -31 -1 -58 1 -61 4 -3 3 14 36 38 74 60 92 57 85
62 130 5 33 1 44 -18 62 -27 25 -89 36 -123 21z"/>
<path d="M5040 3007 c-19 -10 -24 -20 -23 -42 3 -35 17 -52 35 -39 7 6 31 16
52 23 35 12 41 12 51 -3 18 -24 37 -133 30 -166 -14 -62 -87 -83 -93 -27 -2
16 1 41 6 57 18 49 1 41 -40 -19 -50 -75 -46 -103 17 -121 54 -15 80 -9 125
29 l35 29 0 93 c0 115 -16 151 -78 180 -49 22 -82 24 -117 6z"/>
<path d="M5340 3004 c-14 -9 -34 -30 -43 -46 -18 -31 -23 -78 -8 -78 5 0 12
-10 16 -22 5 -20 9 -15 20 27 16 55 36 75 75 75 41 0 66 -25 85 -85 32 -104 6
-175 -67 -175 -41 0 -71 25 -94 78 -10 25 -12 22 -11 -31 0 -66 11 -83 62 -93
48 -9 102 12 120 47 22 41 30 166 15 228 -15 64 -46 91 -104 91 -22 0 -52 -8
-66 -16z m4 -290 c9 -24 2 -26 -12 -4 -7 11 -8 20 -3 20 5 0 12 -7 15 -16z"/>
<path d="M574 1249 c-48 -9 -73 -28 -83 -62 -10 -36 -6 -215 7 -295 5 -30 5
-99 0 -155 -14 -183 -15 -424 0 -439 18 -18 186 -18 204 0 10 10 13 55 13 170
l0 157 35 18 c32 16 54 17 225 12 l190 -7 42 28 c62 41 86 102 91 229 3 70 -1
121 -13 175 -25 108 -66 148 -170 166 -55 10 -495 12 -541 3z m524 -262 c13
-11 16 -104 4 -125 -12 -18 -67 -32 -105 -25 -19 3 -65 0 -103 -5 -50 -8 -86
-8 -134 1 l-65 12 -3 61 c-4 90 1 93 178 96 160 3 209 0 228 -15z"/>
<path d="M1586 1240 c-16 -10 -34 -27 -39 -37 -7 -11 -10 -176 -10 -434 0
-331 3 -422 14 -444 32 -65 112 -89 166 -49 51 38 57 75 58 344 0 360 -10 566
-30 596 -30 46 -107 57 -159 24z"/>
<path d="M2195 1236 c-28 -12 -67 -38 -86 -57 -49 -46 -72 -146 -67 -287 3
-107 10 -122 87 -197 39 -38 53 -40 315 -55 191 -10 199 -13 200 -82 1 -40 -2
-44 -34 -60 -43 -22 -143 -23 -296 -4 -226 28 -271 15 -259 -74 11 -84 16 -95
51 -123 50 -41 127 -51 314 -41 85 4 184 9 220 9 111 3 118 4 153 34 49 43 67
112 67 253 0 68 -6 133 -14 160 -18 61 -62 118 -91 118 -13 0 -36 7 -51 15
-24 13 -59 14 -209 9 -170 -5 -182 -4 -212 15 -27 17 -33 27 -33 56 0 67 13
71 237 80 204 7 258 2 309 -32 13 -8 24 -22 27 -31 4 -20 27 83 34 154 3 38 1
53 -11 63 -9 8 -16 24 -16 36 0 12 -6 27 -12 32 -27 21 -164 33 -365 33 -197
0 -211 -1 -258 -24z"/>
<path d="M3295 1251 c-27 -4 -62 -14 -76 -24 -47 -32 -51 -54 -39 -234 7 -90
9 -170 6 -178 -3 -8 -6 -121 -7 -251 l-2 -237 31 -28 c42 -38 89 -42 414 -37
354 5 368 10 368 138 0 81 -18 120 -90 191 -33 33 -60 63 -60 65 0 3 27 30 59
60 84 78 94 109 89 276 -3 89 -9 143 -18 162 -24 47 -104 85 -201 96 -91 11
-394 11 -474 1z m462 -243 c18 -19 20 -76 3 -109 -18 -33 -53 -39 -220 -39
-135 0 -159 2 -164 16 -10 25 -7 129 4 140 5 5 87 9 184 9 151 0 178 -3 193
-17z m-189 -377 c32 -10 142 -109 142 -128 0 -27 -306 -21 -333 6 -5 5 -9 30
-9 57 0 34 5 52 18 61 21 15 134 17 182 4z"/>
<path d="M4670 1240 c-44 -17 -46 -19 -76 -106 -17 -49 -51 -129 -74 -179 -40
-84 -66 -149 -109 -270 -10 -27 -32 -72 -50 -99 -17 -28 -31 -55 -31 -61 0 -5
-9 -26 -19 -46 -10 -19 -22 -64 -26 -100 -6 -60 -4 -66 19 -91 28 -29 80 -48
133 -48 25 0 38 8 58 34 33 43 68 50 260 51 168 0 201 -6 210 -36 7 -21 11
-22 98 -15 57 4 97 11 105 20 19 19 17 72 -3 121 -10 22 -26 71 -37 109 -10
38 -50 135 -89 215 -38 80 -79 177 -91 216 -37 122 -86 227 -125 267 -43 44
-77 48 -153 18z m90 -403 c0 -7 30 -71 66 -144 56 -109 65 -134 55 -147 -10
-12 -37 -14 -141 -13 -77 1 -133 6 -140 13 -8 8 6 43 48 125 33 63 63 125 67
139 4 14 12 31 17 37 12 14 28 8 28 -10z"/>
</g>
</svg>
